<svg width="100" height="100" viewBox="0 0 100 100" fill="none" xmlns="http://www.w3.org/2000/svg">
<rect width="100" height="100" rx="26" fill="#2D2D2D"/>
<rect x="29.3571" y="25" width="45" height="47" rx="4" fill="#E8E8E8"/>
<g filter="url(#filter0_d_12_23)">
<rect x="26" y="28" width="45" height="47" rx="4" fill="#E8E8E8"/>
</g>
<rect x="33" y="38" width="31" height="5" rx="2.5" fill="black"/>
<rect x="33" y="62" width="28" height="5" rx="2.5" fill="black"/>
<rect x="33" y="46" width="25" height="5" rx="2.5" fill="black"/>
<rect x="33" y="54" width="22" height="5" rx="2.5" fill="black"/>
<path d="M45 23.36L47.9164 22L51.5 32L50 32.5L45 23.36Z" fill="url(#paint0_linear_12_23)"/>
<circle cx="45.5" cy="22.5" r="4.5" fill="url(#paint1_linear_12_23)"/>
<defs>
<filter id="filter0_d_12_23" x="23" y="23" width="53" height="55" filterUnits="userSpaceOnUse" color-interpolation-filters="sRGB">
<feFlood flood-opacity="0" result="BackgroundImageFix"/>
<feColorMatrix in="SourceAlpha" type="matrix" values="0 0 0 0 0 0 0 0 0 0 0 0 0 0 0 0 0 0 127 0" result="hardAlpha"/>
<feOffset dx="1" dy="-1"/>
<feGaussianBlur stdDeviation="2"/>
<feComposite in2="hardAlpha" operator="out"/>
<feColorMatrix type="matrix" values="0 0 0 0 0 0 0 0 0 0 0 0 0 0 0 0 0 0 0.25 0"/>
<feBlend mode="normal" in2="BackgroundImageFix" result="effect1_dropShadow_12_23"/>
<feBlend mode="normal" in="SourceGraphic" in2="effect1_dropShadow_12_23" result="shape"/>
</filter>
<linearGradient id="paint0_linear_12_23" x1="46.4582" y1="22.68" x2="50.7933" y2="31.9767" gradientUnits="userSpaceOnUse">
<stop stop-color="#C7C7C7"/>
<stop offset="1" stop-color="#E8E8E8"/>
</linearGradient>
<linearGradient id="paint1_linear_12_23" x1="45.5" y1="18" x2="45.5" y2="27" gradientUnits="userSpaceOnUse">
<stop stop-color="#B7B7B7"/>
<stop offset="1" stop-color="#666666"/>
</linearGradient>
</defs>
</svg>
